<?xml version="1.0" standalone="no"?>
<!DOCTYPE svg PUBLIC "-//W3C//DTD SVG 20010904//EN"
 "http://www.w3.org/TR/2001/REC-SVG-20010904/DTD/svg10.dtd">
<svg version="1.0" xmlns="http://www.w3.org/2000/svg"
 width="1024.000000pt" height="1024.000000pt" viewBox="0 0 1024.000000 1024.000000"
 preserveAspectRatio="xMidYMid meet">

<g transform="translate(0.000000,1024.000000) scale(0.100000,-0.100000)"
fill="#000000" stroke="none">
<path d="M0 5120 l0 -5120 5120 0 5120 0 0 5120 0 5120 -5120 0 -5120 0 0
-5120z m7526 3429 c281 -28 518 -137 707 -323 170 -168 271 -351 330 -601 l21
-90 4 -2310 c2 -1494 -1 -2356 -7 -2440 -13 -166 -47 -299 -110 -431 -160
-336 -429 -553 -786 -637 l-90 -21 -2390 -4 c-1595 -2 -2428 1 -2505 8 -259
23 -464 111 -662 283 -41 36 -79 63 -83 59 -5 -4 -5 -2 -1 5 4 7 -16 41 -48
80 -99 122 -190 322 -233 513 -16 69 -17 261 -21 2415 -2 1605 0 2373 7 2445
27 261 134 502 307 688 185 201 468 338 744 361 153 13 4687 13 4816 0z"/>
<path d="M5129 6756 c-20 -7 -52 -22 -70 -34 -19 -12 -387 -374 -819 -806
l-784 -785 -276 272 c-167 167 -291 281 -315 293 -59 28 -165 26 -225 -5 -57
-30 -263 -241 -292 -300 -13 -28 -23 -70 -26 -117 -8 -129 -16 -119 526 -655
262 -259 497 -483 522 -497 39 -23 56 -27 125 -27 69 0 86 4 125 27 26 15 466
448 1032 1015 1086 1087 1030 1025 1032 1153 0 100 -21 134 -192 302 -132 130
-153 148 -202 162 -64 19 -112 20 -161 2z"/>
<path d="M6366 6210 c-77 -23 -146 -99 -167 -183 -28 -114 27 -231 136 -290
40 -22 43 -22 695 -22 725 0 686 -3 765 66 73 65 103 173 73 271 -15 51 -82
126 -133 149 -38 17 -80 19 -690 18 -357 0 -663 -5 -679 -9z"/>
<path d="M6322 5014 c-87 -43 -132 -120 -132 -227 0 -116 69 -211 176 -243 43
-12 147 -14 690 -12 637 3 639 3 680 25 23 12 60 43 81 67 100 114 78 294 -46
381 l-43 30 -676 3 -677 2 -53 -26z"/>
<path d="M5120 3841 c-72 -22 -139 -81 -166 -147 -17 -41 -18 -133 -2 -185 15
-51 69 -114 122 -142 l41 -22 1278 -3 1278 -2 49 21 c56 24 114 83 137 138 20
46 20 146 0 192 -20 49 -72 106 -121 132 l-41 22 -1275 2 c-701 1 -1286 -2
-1300 -6z"/>
</g>
</svg>
